# xmcd
#
# Track frame offsets: 
#        150
#        8785
#        19689
#        33263
#        41640
#        53047
#        63003
#        73570
#        86362
#        95706
#        106719
#        116712
#        127224
#        133992
#        144018
#        152672
#        163159
#        176316
#        184627
#        196384
#
# Disc length: 2735 seconds
#
# Revision: 1
# Processed by: cddbd v1.5.2PL0 Copyright (c) Steve Scherf et al.
# Submitted via: ExactAudioCopy v1.3
#
DISCID=060aad14
DTITLE=Various Artist - Country Outlaws
DYEAR=2013
DGENRE=Country
TTITLE0=Waylon Jennings - Jole Blon
TTITLE1=Willie Nelson - Hello Walls
TTITLE2=Johnny Cash - Don't Take Your Guns To Town
TTITLE3=Waylon Jennings - Abilene
TTITLE4=Willie Nelson - What A Way To Live
TTITLE5=Johnny Cash - Hank And Joe And Me
TTITLE6=Waylon Jennings - I Got A Tiger By The Tail
TTITLE7=Willie Nelson - Wake Me When It's Over
TTITLE8=Johnny Cash - I Got Stripes
TTITLE9=Waylon Jennings - Big Mamou
TTITLE10=Wille Nelson - I Didn't Sleep A Wink
TTITLE11=Johnny Cash - Bonanza
TTITLE12=Waylon Jennings - It's So Easy
TTITLE13=Willie Nelson - There's Gonna Be Love
TTITLE14=Johnny Cash - Accidentally On Purpose
TTITLE15=Waylon Jennings - The Only Daddy That'll Walk The Line
TTITLE16=Willie Nelson - You'll Always Have Someone
TTITLE17=Johnny Cash - I'm Free From The Chain Gang Now
TTITLE18=Waylon Jennings - Crying
TTITLE19=Willie Nelson - You Wouldn't Cross The Street To Say Goodbye
EXTD=
EXTT0=
EXTT1=
EXTT2=
EXTT3=
EXTT4=
EXTT5=
EXTT6=
EXTT7=
EXTT8=
EXTT9=
EXTT10=
EXTT11=
EXTT12=
EXTT13=
EXTT14=
EXTT15=
EXTT16=
EXTT17=
EXTT18=
EXTT19=
PLAYORDER=
